<?xml version="1.0" encoding="UTF-8"?>
<svg width="100" height="20" viewBox="0 0 100 20" fill="none" xmlns="http://www.w3.org/2000/svg">
  <path d="M10 0C4.477 0 0 4.477 0 10C0 15.523 4.477 20 10 20C15.523 20 20 15.523 20 10C20 4.477 15.523 0 10 0ZM10 18C5.582 18 2 14.418 2 10C2 5.582 5.582 2 10 2C14.418 2 18 5.582 18 10C18 14.418 14.418 18 10 18Z" fill="currentColor"/>
  <path d="M10 4C6.686 4 4 6.686 4 10C4 13.314 6.686 16 10 16C13.314 16 16 13.314 16 10C16 6.686 13.314 4 10 4ZM10 14C7.791 14 6 12.209 6 10C6 7.791 7.791 6 10 6C12.209 6 14 7.791 14 10C14 12.209 12.209 14 10 14Z" fill="currentColor"/>
  <path d="M10 8C8.895 8 8 8.895 8 10C8 11.105 8.895 12 10 12C11.105 12 12 11.105 12 10C12 8.895 11.105 8 10 8Z" fill="currentColor"/>
</svg> 